<svg width="772" height="112" viewBox="0 0 772 112" fill="none" xmlns="http://www.w3.org/2000/svg">
<path d="M8.13 43.168C7.30867 43.168 6.60867 43.0187 6.03 42.72C5.46067 42.4213 4.97067 42.02 4.56 41.516L5.652 40.494C5.99733 40.914 6.37533 41.2313 6.786 41.446C7.206 41.6607 7.682 41.768 8.214 41.768C8.83933 41.768 9.31067 41.628 9.628 41.348C9.94533 41.068 10.104 40.69 10.104 40.214C10.104 39.8313 9.992 39.528 9.768 39.304C9.544 39.08 9.14733 38.912 8.578 38.8L7.71 38.646C6.758 38.4687 6.044 38.156 5.568 37.708C5.092 37.26 4.854 36.644 4.854 35.86C4.854 35.4307 4.93333 35.0433 5.092 34.698C5.26 34.3433 5.48867 34.0493 5.778 33.816C6.07667 33.5733 6.436 33.3867 6.856 33.256C7.276 33.1253 7.74733 33.06 8.27 33.06C9.00733 33.06 9.64667 33.1907 10.188 33.452C10.7293 33.704 11.1913 34.0727 11.574 34.558L10.468 35.538C10.216 35.2113 9.908 34.95 9.544 34.754C9.18 34.558 8.72733 34.46 8.186 34.46C7.626 34.46 7.192 34.572 6.884 34.796C6.576 35.02 6.422 35.3467 6.422 35.776C6.422 36.1867 6.548 36.4947 6.8 36.7C7.052 36.896 7.444 37.0453 7.976 37.148L8.844 37.33C9.824 37.5167 10.538 37.834 10.986 38.282C11.4433 38.73 11.672 39.346 11.672 40.13C11.672 40.5873 11.5927 41.0027 11.434 41.376C11.2753 41.7493 11.042 42.0713 10.734 42.342C10.4353 42.6033 10.0667 42.8087 9.628 42.958C9.18933 43.098 8.69 43.168 8.13 43.168ZM14.1512 43V41.712H15.4812V34.516H14.1512V33.228H18.4072V34.516H17.0632V41.712H18.4072V43H14.1512ZM27.6814 41.516H27.6254C27.5227 41.992 27.2427 42.3887 26.7854 42.706C26.3374 43.014 25.7401 43.168 24.9934 43.168C24.4147 43.168 23.8781 43.0607 23.3834 42.846C22.8887 42.622 22.4594 42.3 22.0954 41.88C21.7407 41.4507 21.4607 40.9233 21.2554 40.298C21.0594 39.6633 20.9614 38.9353 20.9614 38.114C20.9614 37.302 21.0641 36.5833 21.2694 35.958C21.4747 35.3233 21.7641 34.7913 22.1374 34.362C22.5107 33.9327 22.9587 33.6107 23.4814 33.396C24.0041 33.172 24.5874 33.06 25.2314 33.06C26.1087 33.06 26.8507 33.256 27.4574 33.648C28.0641 34.0307 28.5354 34.5673 28.8714 35.258L27.5834 36.014C27.3967 35.5567 27.1074 35.188 26.7154 34.908C26.3234 34.6187 25.8287 34.474 25.2314 34.474C24.4567 34.474 23.8314 34.7213 23.3554 35.216C22.8887 35.7107 22.6554 36.4107 22.6554 37.316V38.912C22.6554 39.8173 22.8887 40.5173 23.3554 41.012C23.8314 41.5067 24.4567 41.754 25.2314 41.754C25.5394 41.754 25.8334 41.7167 26.1134 41.642C26.3934 41.558 26.6361 41.4413 26.8414 41.292C27.0561 41.1333 27.2241 40.942 27.3454 40.718C27.4761 40.4847 27.5414 40.214 27.5414 39.906V39.15H25.5254V37.792H29.0674V43H27.6814V41.516ZM34.8985 37.596L33.8205 35.524H33.7785V43H32.2665V33.228H34.0305L37.2225 38.632L38.3005 40.704H38.3425V33.228H39.8545V43H38.0905L34.8985 37.596ZM6.702 53.228V59.248C6.702 60.0787 6.86067 60.704 7.178 61.124C7.49533 61.544 8.03667 61.754 8.802 61.754C9.56733 61.754 10.1087 61.544 10.426 61.124C10.7433 60.704 10.902 60.0787 10.902 59.248V53.228H12.456V58.996C12.456 59.7147 12.3907 60.3353 12.26 60.858C12.1293 61.3807 11.9193 61.8147 11.63 62.16C11.3407 62.496 10.9627 62.748 10.496 62.916C10.0387 63.084 9.474 63.168 8.802 63.168C8.13 63.168 7.56067 63.084 7.094 62.916C6.63667 62.748 6.26333 62.496 5.974 62.16C5.68467 61.8147 5.47467 61.3807 5.344 60.858C5.21333 60.3353 5.148 59.7147 5.148 58.996V53.228H6.702ZM15.8017 63V53.228H20.0017C20.907 53.228 21.607 53.494 22.1017 54.026C22.5963 54.558 22.8437 55.272 22.8437 56.168C22.8437 57.064 22.5963 57.778 22.1017 58.31C21.607 58.842 20.907 59.108 20.0017 59.108H17.3837V63H15.8017ZM17.3837 57.722H19.9037C20.305 57.722 20.6177 57.6193 20.8417 57.414C21.0657 57.1993 21.1777 56.896 21.1777 56.504V55.832C21.1777 55.44 21.0657 55.1413 20.8417 54.936C20.6177 54.7213 20.305 54.614 19.9037 54.614H17.3837V57.722Z" fill="#000E0B"/>
<path d="M320.521 43V33.228H326.625V34.628H322.103V37.344H326.121V38.744H322.103V43H320.521ZM331.003 33.228V39.248C331.003 40.0787 331.162 40.704 331.479 41.124C331.797 41.544 332.338 41.754 333.103 41.754C333.869 41.754 334.41 41.544 334.727 41.124C335.045 40.704 335.203 40.0787 335.203 39.248V33.228H336.757V38.996C336.757 39.7147 336.692 40.3353 336.561 40.858C336.431 41.3807 336.221 41.8147 335.931 42.16C335.642 42.496 335.264 42.748 334.797 42.916C334.34 43.084 333.775 43.168 333.103 43.168C332.431 43.168 331.862 43.084 331.395 42.916C330.938 42.748 330.565 42.496 330.275 42.16C329.986 41.8147 329.776 41.3807 329.645 40.858C329.515 40.3353 329.449 39.7147 329.449 38.996V33.228H331.003ZM342.735 37.596L341.657 35.524H341.615V43H340.103V33.228H341.867L345.059 38.632L346.137 40.704H346.179V33.228H347.691V43H345.927L342.735 37.596ZM351.097 33.228H354.555C355.18 33.228 355.745 33.3307 356.249 33.536C356.762 33.7413 357.196 34.0493 357.551 34.46C357.915 34.8613 358.195 35.37 358.391 35.986C358.587 36.5927 358.685 37.302 358.685 38.114C358.685 38.926 358.587 39.64 358.391 40.256C358.195 40.8627 357.915 41.3713 357.551 41.782C357.196 42.1833 356.762 42.4867 356.249 42.692C355.745 42.8973 355.18 43 354.555 43H351.097V33.228ZM354.555 41.6C355.283 41.6 355.871 41.3713 356.319 40.914C356.767 40.4567 356.991 39.7847 356.991 38.898V37.33C356.991 36.4433 356.767 35.7713 356.319 35.314C355.871 34.8567 355.283 34.628 354.555 34.628H352.679V41.6H354.555ZM364.58 43.168C363.758 43.168 363.058 43.0187 362.48 42.72C361.91 42.4213 361.42 42.02 361.01 41.516L362.102 40.494C362.447 40.914 362.825 41.2313 363.236 41.446C363.656 41.6607 364.132 41.768 364.664 41.768C365.289 41.768 365.76 41.628 366.078 41.348C366.395 41.068 366.554 40.69 366.554 40.214C366.554 39.8313 366.442 39.528 366.218 39.304C365.994 39.08 365.597 38.912 365.028 38.8L364.16 38.646C363.208 38.4687 362.494 38.156 362.018 37.708C361.542 37.26 361.304 36.644 361.304 35.86C361.304 35.4307 361.383 35.0433 361.542 34.698C361.71 34.3433 361.938 34.0493 362.228 33.816C362.526 33.5733 362.886 33.3867 363.306 33.256C363.726 33.1253 364.197 33.06 364.72 33.06C365.457 33.06 366.096 33.1907 366.638 33.452C367.179 33.704 367.641 34.0727 368.024 34.558L366.918 35.538C366.666 35.2113 366.358 34.95 365.994 34.754C365.63 34.558 365.177 34.46 364.636 34.46C364.076 34.46 363.642 34.572 363.334 34.796C363.026 35.02 362.872 35.3467 362.872 35.776C362.872 36.1867 362.998 36.4947 363.25 36.7C363.502 36.896 363.894 37.0453 364.426 37.148L365.294 37.33C366.274 37.5167 366.988 37.834 367.436 38.282C367.893 38.73 368.122 39.346 368.122 40.13C368.122 40.5873 368.042 41.0027 367.884 41.376C367.725 41.7493 367.492 42.0713 367.184 42.342C366.885 42.6033 366.516 42.8087 366.078 42.958C365.639 43.098 365.14 43.168 364.58 43.168ZM374.909 43V41.712H376.239V34.516H374.909V33.228H379.165V34.516H377.821V41.712H379.165V43H374.909ZM384.786 37.596L383.708 35.524H383.666V43H382.154V33.228H383.918L387.11 38.632L388.188 40.704H388.23V33.228H389.742V43H387.978L384.786 37.596ZM332.067 54.628V63H330.485V54.628H327.573V53.228H334.979V54.628H332.067ZM339.103 63H337.521V53.228H341.735C342.612 53.228 343.303 53.494 343.807 54.026C344.311 54.5487 344.563 55.2627 344.563 56.168C344.563 56.868 344.4 57.4513 344.073 57.918C343.756 58.3753 343.284 58.6973 342.659 58.884L344.773 63H343.009L341.049 59.052H339.103V63ZM341.623 57.722C342.024 57.722 342.337 57.6193 342.561 57.414C342.785 57.1993 342.897 56.896 342.897 56.504V55.832C342.897 55.44 342.785 55.1413 342.561 54.936C342.337 54.7213 342.024 54.614 341.623 54.614H339.103V57.722H341.623ZM353.799 63L352.917 60.354H349.263L348.409 63H346.799L350.131 53.228H352.119L355.451 63H353.799ZM351.125 54.684H351.055L349.641 58.996H352.525L351.125 54.684ZM360.596 57.596L359.518 55.524H359.476V63H357.964V53.228H359.728L362.92 58.632L363.998 60.704H364.04V53.228H365.552V63H363.788L360.596 57.596ZM371.884 63.168C371.063 63.168 370.363 63.0187 369.784 62.72C369.215 62.4213 368.725 62.02 368.314 61.516L369.406 60.494C369.752 60.914 370.13 61.2313 370.54 61.446C370.96 61.6607 371.436 61.768 371.968 61.768C372.594 61.768 373.065 61.628 373.382 61.348C373.7 61.068 373.858 60.69 373.858 60.214C373.858 59.8313 373.746 59.528 373.522 59.304C373.298 59.08 372.902 58.912 372.332 58.8L371.464 58.646C370.512 58.4687 369.798 58.156 369.322 57.708C368.846 57.26 368.608 56.644 368.608 55.86C368.608 55.4307 368.688 55.0433 368.846 54.698C369.014 54.3433 369.243 54.0493 369.532 53.816C369.831 53.5733 370.19 53.3867 370.61 53.256C371.03 53.1253 371.502 53.06 372.024 53.06C372.762 53.06 373.401 53.1907 373.942 53.452C374.484 53.704 374.946 54.0727 375.328 54.558L374.222 55.538C373.97 55.2113 373.662 54.95 373.298 54.754C372.934 54.558 372.482 54.46 371.94 54.46C371.38 54.46 370.946 54.572 370.638 54.796C370.33 55.02 370.176 55.3467 370.176 55.776C370.176 56.1867 370.302 56.4947 370.554 56.7C370.806 56.896 371.198 57.0453 371.73 57.148L372.598 57.33C373.578 57.5167 374.292 57.834 374.74 58.282C375.198 58.73 375.426 59.346 375.426 60.13C375.426 60.5873 375.347 61.0027 375.188 61.376C375.03 61.7493 374.796 62.0713 374.488 62.342C374.19 62.6033 373.821 62.8087 373.382 62.958C372.944 63.098 372.444 63.168 371.884 63.168ZM377.906 63V61.712H379.236V54.516H377.906V53.228H382.162V54.516H380.818V61.712H382.162V63H377.906ZM388.694 54.628V63H387.112V54.628H384.2V53.228H391.606V54.628H388.694Z" fill="#000E0B"/>
<path d="M157.712 43.168C156.891 43.168 156.191 43.0187 155.612 42.72C155.043 42.4213 154.553 42.02 154.142 41.516L155.234 40.494C155.579 40.914 155.957 41.2313 156.368 41.446C156.788 41.6607 157.264 41.768 157.796 41.768C158.421 41.768 158.893 41.628 159.21 41.348C159.527 41.068 159.686 40.69 159.686 40.214C159.686 39.8313 159.574 39.528 159.35 39.304C159.126 39.08 158.729 38.912 158.16 38.8L157.292 38.646C156.34 38.4687 155.626 38.156 155.15 37.708C154.674 37.26 154.436 36.644 154.436 35.86C154.436 35.4307 154.515 35.0433 154.674 34.698C154.842 34.3433 155.071 34.0493 155.36 33.816C155.659 33.5733 156.018 33.3867 156.438 33.256C156.858 33.1253 157.329 33.06 157.852 33.06C158.589 33.06 159.229 33.1907 159.77 33.452C160.311 33.704 160.773 34.0727 161.156 34.558L160.05 35.538C159.798 35.2113 159.49 34.95 159.126 34.754C158.762 34.558 158.309 34.46 157.768 34.46C157.208 34.46 156.774 34.572 156.466 34.796C156.158 35.02 156.004 35.3467 156.004 35.776C156.004 36.1867 156.13 36.4947 156.382 36.7C156.634 36.896 157.026 37.0453 157.558 37.148L158.426 37.33C159.406 37.5167 160.12 37.834 160.568 38.282C161.025 38.73 161.254 39.346 161.254 40.13C161.254 40.5873 161.175 41.0027 161.016 41.376C160.857 41.7493 160.624 42.0713 160.316 42.342C160.017 42.6033 159.649 42.8087 159.21 42.958C158.771 43.098 158.272 43.168 157.712 43.168ZM165.651 33.228V39.248C165.651 40.0787 165.81 40.704 166.127 41.124C166.445 41.544 166.986 41.754 167.751 41.754C168.517 41.754 169.058 41.544 169.375 41.124C169.693 40.704 169.851 40.0787 169.851 39.248V33.228H171.405V38.996C171.405 39.7147 171.34 40.3353 171.209 40.858C171.079 41.3807 170.869 41.8147 170.579 42.16C170.29 42.496 169.912 42.748 169.445 42.916C168.988 43.084 168.423 43.168 167.751 43.168C167.079 43.168 166.51 43.084 166.043 42.916C165.586 42.748 165.213 42.496 164.923 42.16C164.634 41.8147 164.424 41.3807 164.293 40.858C164.163 40.3353 164.097 39.7147 164.097 38.996V33.228H165.651ZM174.751 33.228H179.077C179.889 33.228 180.524 33.4567 180.981 33.914C181.448 34.3713 181.681 34.9827 181.681 35.748C181.681 36.112 181.63 36.4247 181.527 36.686C181.424 36.938 181.294 37.148 181.135 37.316C180.976 37.4747 180.794 37.596 180.589 37.68C180.384 37.7547 180.183 37.8013 179.987 37.82V37.904C180.183 37.9133 180.398 37.96 180.631 38.044C180.874 38.128 181.098 38.2633 181.303 38.45C181.508 38.6273 181.681 38.8607 181.821 39.15C181.961 39.43 182.031 39.7753 182.031 40.186C182.031 40.578 181.966 40.9467 181.835 41.292C181.714 41.6373 181.541 41.936 181.317 42.188C181.093 42.44 180.827 42.6407 180.519 42.79C180.211 42.93 179.875 43 179.511 43H174.751V33.228ZM176.333 41.642H179.049C179.46 41.642 179.782 41.5347 180.015 41.32C180.248 41.1053 180.365 40.7973 180.365 40.396V39.92C180.365 39.5187 180.248 39.2107 180.015 38.996C179.782 38.7813 179.46 38.674 179.049 38.674H176.333V41.642ZM176.333 37.358H178.783C179.175 37.358 179.478 37.26 179.693 37.064C179.908 36.8587 180.015 36.5693 180.015 36.196V35.748C180.015 35.3747 179.908 35.09 179.693 34.894C179.478 34.6887 179.175 34.586 178.783 34.586H176.333V37.358ZM192.455 35.524H192.385L191.615 37.106L189.473 41.012L187.331 37.106L186.561 35.524H186.491V43H184.979V33.228H186.855L189.473 38.198H189.557L192.175 33.228H193.967V43H192.455V35.524ZM196.962 43V41.712H198.292V34.516H196.962V33.228H201.218V34.516H199.874V41.712H201.218V43H196.962ZM207.75 34.628V43H206.168V34.628H203.256V33.228H210.662V34.628H207.75ZM166.814 63.168C166.179 63.168 165.601 63.0607 165.078 62.846C164.565 62.622 164.121 62.3 163.748 61.88C163.384 61.4507 163.099 60.9233 162.894 60.298C162.698 59.6633 162.6 58.9353 162.6 58.114C162.6 57.2927 162.698 56.5693 162.894 55.944C163.099 55.3093 163.384 54.782 163.748 54.362C164.121 53.9327 164.565 53.6107 165.078 53.396C165.601 53.172 166.179 53.06 166.814 53.06C167.449 53.06 168.023 53.172 168.536 53.396C169.059 53.6107 169.502 53.9327 169.866 54.362C170.239 54.782 170.524 55.3093 170.72 55.944C170.925 56.5693 171.028 57.2927 171.028 58.114C171.028 58.9353 170.925 59.6633 170.72 60.298C170.524 60.9233 170.239 61.4507 169.866 61.88C169.502 62.3 169.059 62.622 168.536 62.846C168.023 63.0607 167.449 63.168 166.814 63.168ZM166.814 61.754C167.187 61.754 167.528 61.6887 167.836 61.558C168.153 61.4273 168.419 61.2407 168.634 60.998C168.858 60.746 169.031 60.4427 169.152 60.088C169.273 59.7333 169.334 59.332 169.334 58.884V57.344C169.334 56.896 169.273 56.4947 169.152 56.14C169.031 55.7853 168.858 55.4867 168.634 55.244C168.419 54.992 168.153 54.8007 167.836 54.67C167.528 54.5393 167.187 54.474 166.814 54.474C166.431 54.474 166.086 54.5393 165.778 54.67C165.47 54.8007 165.204 54.992 164.98 55.244C164.765 55.4867 164.597 55.7853 164.476 56.14C164.355 56.4947 164.294 56.896 164.294 57.344V58.884C164.294 59.332 164.355 59.7333 164.476 60.088C164.597 60.4427 164.765 60.746 164.98 60.998C165.204 61.2407 165.47 61.4273 165.778 61.558C166.086 61.6887 166.431 61.754 166.814 61.754ZM175.583 63H174.001V53.228H178.215C179.092 53.228 179.783 53.494 180.287 54.026C180.791 54.5487 181.043 55.2627 181.043 56.168C181.043 56.868 180.88 57.4513 180.553 57.918C180.236 58.3753 179.764 58.6973 179.139 58.884L181.253 63H179.489L177.529 59.052H175.583V63ZM178.103 57.722C178.504 57.722 178.817 57.6193 179.041 57.414C179.265 57.1993 179.377 56.896 179.377 56.504V55.832C179.377 55.44 179.265 55.1413 179.041 54.936C178.817 54.7213 178.504 54.614 178.103 54.614H175.583V57.722H178.103ZM184.175 53.228H187.633C188.258 53.228 188.823 53.3307 189.327 53.536C189.84 53.7413 190.274 54.0493 190.629 54.46C190.993 54.8613 191.273 55.37 191.469 55.986C191.665 56.5927 191.763 57.302 191.763 58.114C191.763 58.926 191.665 59.64 191.469 60.256C191.273 60.8627 190.993 61.3713 190.629 61.782C190.274 62.1833 189.84 62.4867 189.327 62.692C188.823 62.8973 188.258 63 187.633 63H184.175V53.228ZM187.633 61.6C188.361 61.6 188.949 61.3713 189.397 60.914C189.845 60.4567 190.069 59.7847 190.069 58.898V57.33C190.069 56.4433 189.845 55.7713 189.397 55.314C188.949 54.8567 188.361 54.628 187.633 54.628H185.757V61.6H187.633ZM194.731 63V53.228H200.989V54.628H196.313V57.344H200.555V58.744H196.313V61.6H200.989V63H194.731ZM205.612 63H204.03V53.228H208.244C209.122 53.228 209.812 53.494 210.316 54.026C210.82 54.5487 211.072 55.2627 211.072 56.168C211.072 56.868 210.909 57.4513 210.582 57.918C210.265 58.3753 209.794 58.6973 209.168 58.884L211.282 63H209.518L207.558 59.052H205.612V63ZM208.132 57.722C208.534 57.722 208.846 57.6193 209.07 57.414C209.294 57.1993 209.406 56.896 209.406 56.504V55.832C209.406 55.44 209.294 55.1413 209.07 54.936C208.846 54.7213 208.534 54.614 208.132 54.614H205.612V57.722H208.132Z" fill="#000E0B"/>
<path d="M515.704 43V33.228H521.808V34.628H517.286V37.344H521.304V38.744H517.286V43H515.704ZM526.186 33.228V39.248C526.186 40.0787 526.345 40.704 526.662 41.124C526.98 41.544 527.521 41.754 528.286 41.754C529.052 41.754 529.593 41.544 529.91 41.124C530.228 40.704 530.386 40.0787 530.386 39.248V33.228H531.94V38.996C531.94 39.7147 531.875 40.3353 531.744 40.858C531.614 41.3807 531.404 41.8147 531.114 42.16C530.825 42.496 530.447 42.748 529.98 42.916C529.523 43.084 528.958 43.168 528.286 43.168C527.614 43.168 527.045 43.084 526.578 42.916C526.121 42.748 525.748 42.496 525.458 42.16C525.169 41.8147 524.959 41.3807 524.828 40.858C524.698 40.3353 524.632 39.7147 524.632 38.996V33.228H526.186ZM537.918 37.596L536.84 35.524H536.798V43H535.286V33.228H537.05L540.242 38.632L541.32 40.704H541.362V33.228H542.874V43H541.11L537.918 37.596ZM546.28 33.228H549.738C550.364 33.228 550.928 33.3307 551.432 33.536C551.946 33.7413 552.38 34.0493 552.734 34.46C553.098 34.8613 553.378 35.37 553.574 35.986C553.77 36.5927 553.868 37.302 553.868 38.114C553.868 38.926 553.77 39.64 553.574 40.256C553.378 40.8627 553.098 41.3713 552.734 41.782C552.38 42.1833 551.946 42.4867 551.432 42.692C550.928 42.8973 550.364 43 549.738 43H546.28V33.228ZM549.738 41.6C550.466 41.6 551.054 41.3713 551.502 40.914C551.95 40.4567 552.174 39.7847 552.174 38.898V37.33C552.174 36.4433 551.95 35.7713 551.502 35.314C551.054 34.8567 550.466 34.628 549.738 34.628H547.862V41.6H549.738ZM559.763 43.168C558.941 43.168 558.241 43.0187 557.663 42.72C557.093 42.4213 556.603 42.02 556.193 41.516L557.285 40.494C557.63 40.914 558.008 41.2313 558.419 41.446C558.839 41.6607 559.315 41.768 559.847 41.768C560.472 41.768 560.943 41.628 561.261 41.348C561.578 41.068 561.737 40.69 561.737 40.214C561.737 39.8313 561.625 39.528 561.401 39.304C561.177 39.08 560.78 38.912 560.211 38.8L559.343 38.646C558.391 38.4687 557.677 38.156 557.201 37.708C556.725 37.26 556.487 36.644 556.487 35.86C556.487 35.4307 556.566 35.0433 556.725 34.698C556.893 34.3433 557.121 34.0493 557.411 33.816C557.709 33.5733 558.069 33.3867 558.489 33.256C558.909 33.1253 559.38 33.06 559.903 33.06C560.64 33.06 561.279 33.1907 561.821 33.452C562.362 33.704 562.824 34.0727 563.207 34.558L562.101 35.538C561.849 35.2113 561.541 34.95 561.177 34.754C560.813 34.558 560.36 34.46 559.819 34.46C559.259 34.46 558.825 34.572 558.517 34.796C558.209 35.02 558.055 35.3467 558.055 35.776C558.055 36.1867 558.181 36.4947 558.433 36.7C558.685 36.896 559.077 37.0453 559.609 37.148L560.477 37.33C561.457 37.5167 562.171 37.834 562.619 38.282C563.076 38.73 563.305 39.346 563.305 40.13C563.305 40.5873 563.225 41.0027 563.067 41.376C562.908 41.7493 562.675 42.0713 562.367 42.342C562.068 42.6033 561.699 42.8087 561.261 42.958C560.822 43.098 560.323 43.168 559.763 43.168ZM492.671 63H491.089V53.228H495.303C496.18 53.228 496.871 53.494 497.375 54.026C497.879 54.5487 498.131 55.2627 498.131 56.168C498.131 56.868 497.967 57.4513 497.641 57.918C497.323 58.3753 496.852 58.6973 496.227 58.884L498.341 63H496.577L494.617 59.052H492.671V63ZM495.191 57.722C495.592 57.722 495.905 57.6193 496.129 57.414C496.353 57.1993 496.465 56.896 496.465 56.504V55.832C496.465 55.44 496.353 55.1413 496.129 54.936C495.905 54.7213 495.592 54.614 495.191 54.614H492.671V57.722H495.191ZM501.263 63V53.228H507.521V54.628H502.845V57.344H507.087V58.744H502.845V61.6H507.521V63H501.263ZM514.229 63.168C512.951 63.168 511.947 62.7387 511.219 61.88C510.491 61.012 510.127 59.7567 510.127 58.114C510.127 57.2927 510.221 56.5693 510.407 55.944C510.594 55.3187 510.865 54.7913 511.219 54.362C511.574 53.9327 512.003 53.6107 512.507 53.396C513.021 53.172 513.595 53.06 514.229 53.06C515.079 53.06 515.788 53.2467 516.357 53.62C516.936 53.9933 517.389 54.544 517.715 55.272L516.385 56C516.217 55.5333 515.956 55.1647 515.601 54.894C515.256 54.614 514.799 54.474 514.229 54.474C513.473 54.474 512.881 54.7307 512.451 55.244C512.022 55.7573 511.807 56.4667 511.807 57.372V58.856C511.807 59.7613 512.022 60.4707 512.451 60.984C512.881 61.4973 513.473 61.754 514.229 61.754C514.817 61.754 515.293 61.6047 515.657 61.306C516.031 60.998 516.306 60.606 516.483 60.13L517.757 60.9C517.431 61.6093 516.973 62.1647 516.385 62.566C515.797 62.9673 515.079 63.168 514.229 63.168ZM520.434 63V53.228H526.692V54.628H522.016V57.344H526.258V58.744H522.016V61.6H526.692V63H520.434ZM529.313 63V61.712H530.643V54.516H529.313V53.228H533.569V54.516H532.225V61.712H533.569V63H529.313ZM538.812 63L535.606 53.228H537.244L538.798 58.058L539.736 61.46H539.792L540.744 58.058L542.298 53.228H543.894L540.646 63H538.812ZM546.349 63V53.228H552.607V54.628H547.931V57.344H552.173V58.744H547.931V61.6H552.607V63H546.349ZM555.647 53.228H559.105C559.731 53.228 560.295 53.3307 560.799 53.536C561.313 53.7413 561.747 54.0493 562.101 54.46C562.465 54.8613 562.745 55.37 562.941 55.986C563.137 56.5927 563.235 57.302 563.235 58.114C563.235 58.926 563.137 59.64 562.941 60.256C562.745 60.8627 562.465 61.3713 562.101 61.782C561.747 62.1833 561.313 62.4867 560.799 62.692C560.295 62.8973 559.731 63 559.105 63H555.647V53.228ZM559.105 61.6C559.833 61.6 560.421 61.3713 560.869 60.914C561.317 60.4567 561.541 59.7847 561.541 58.898V57.33C561.541 56.4433 561.317 55.7713 560.869 55.314C560.421 54.8567 559.833 54.628 559.105 54.628H557.229V61.6H559.105Z" fill="#000E0B"/>
<path d="M677.813 43V33.228H683.917V34.628H679.395V37.344H683.413V38.744H679.395V43H677.813ZM688.296 33.228V39.248C688.296 40.0787 688.454 40.704 688.772 41.124C689.089 41.544 689.63 41.754 690.396 41.754C691.161 41.754 691.702 41.544 692.02 41.124C692.337 40.704 692.496 40.0787 692.496 39.248V33.228H694.05V38.996C694.05 39.7147 693.984 40.3353 693.854 40.858C693.723 41.3807 693.513 41.8147 693.224 42.16C692.934 42.496 692.556 42.748 692.09 42.916C691.632 43.084 691.068 43.168 690.396 43.168C689.724 43.168 689.154 43.084 688.688 42.916C688.23 42.748 687.857 42.496 687.568 42.16C687.278 41.8147 687.068 41.3807 686.938 40.858C686.807 40.3353 686.742 39.7147 686.742 38.996V33.228H688.296ZM700.027 37.596L698.949 35.524H698.907V43H697.395V33.228H699.159L702.351 38.632L703.429 40.704H703.471V33.228H704.983V43H703.219L700.027 37.596ZM708.39 33.228H711.848C712.473 33.228 713.038 33.3307 713.542 33.536C714.055 33.7413 714.489 34.0493 714.844 34.46C715.208 34.8613 715.488 35.37 715.684 35.986C715.88 36.5927 715.978 37.302 715.978 38.114C715.978 38.926 715.88 39.64 715.684 40.256C715.488 40.8627 715.208 41.3713 714.844 41.782C714.489 42.1833 714.055 42.4867 713.542 42.692C713.038 42.8973 712.473 43 711.848 43H708.39V33.228ZM711.848 41.6C712.576 41.6 713.164 41.3713 713.612 40.914C714.06 40.4567 714.284 39.7847 714.284 38.898V37.33C714.284 36.4433 714.06 35.7713 713.612 35.314C713.164 34.8567 712.576 34.628 711.848 34.628H709.972V41.6H711.848ZM721.872 43.168C721.051 43.168 720.351 43.0187 719.772 42.72C719.203 42.4213 718.713 42.02 718.302 41.516L719.394 40.494C719.74 40.914 720.118 41.2313 720.528 41.446C720.948 41.6607 721.424 41.768 721.956 41.768C722.582 41.768 723.053 41.628 723.37 41.348C723.688 41.068 723.846 40.69 723.846 40.214C723.846 39.8313 723.734 39.528 723.51 39.304C723.286 39.08 722.89 38.912 722.32 38.8L721.452 38.646C720.5 38.4687 719.786 38.156 719.31 37.708C718.834 37.26 718.596 36.644 718.596 35.86C718.596 35.4307 718.676 35.0433 718.834 34.698C719.002 34.3433 719.231 34.0493 719.52 33.816C719.819 33.5733 720.178 33.3867 720.598 33.256C721.018 33.1253 721.49 33.06 722.012 33.06C722.75 33.06 723.389 33.1907 723.93 33.452C724.472 33.704 724.934 34.0727 725.316 34.558L724.21 35.538C723.958 35.2113 723.65 34.95 723.286 34.754C722.922 34.558 722.47 34.46 721.928 34.46C721.368 34.46 720.934 34.572 720.626 34.796C720.318 35.02 720.164 35.3467 720.164 35.776C720.164 36.1867 720.29 36.4947 720.542 36.7C720.794 36.896 721.186 37.0453 721.718 37.148L722.586 37.33C723.566 37.5167 724.28 37.834 724.728 38.282C725.186 38.73 725.414 39.346 725.414 40.13C725.414 40.5873 725.335 41.0027 725.176 41.376C725.018 41.7493 724.784 42.0713 724.476 42.342C724.178 42.6033 723.809 42.8087 723.37 42.958C722.932 43.098 722.432 43.168 721.872 43.168ZM652.915 63V61.712H654.245V54.516H652.915V53.228H657.171V54.516H655.827V61.712H657.171V63H652.915ZM662.791 57.596L661.713 55.524H661.671V63H660.159V53.228H661.923L665.115 58.632L666.193 60.704H666.235V53.228H667.747V63H665.983L662.791 57.596ZM673.407 63L670.201 53.228H671.839L673.393 58.058L674.331 61.46H674.387L675.339 58.058L676.893 53.228H678.489L675.241 63H673.407ZM680.944 63V53.228H687.202V54.628H682.526V57.344H686.768V58.744H682.526V61.6H687.202V63H680.944ZM693.169 63.168C692.348 63.168 691.648 63.0187 691.069 62.72C690.5 62.4213 690.01 62.02 689.599 61.516L690.691 60.494C691.036 60.914 691.414 61.2313 691.825 61.446C692.245 61.6607 692.721 61.768 693.253 61.768C693.878 61.768 694.35 61.628 694.667 61.348C694.984 61.068 695.143 60.69 695.143 60.214C695.143 59.8313 695.031 59.528 694.807 59.304C694.583 59.08 694.186 58.912 693.617 58.8L692.749 58.646C691.797 58.4687 691.083 58.156 690.607 57.708C690.131 57.26 689.893 56.644 689.893 55.86C689.893 55.4307 689.972 55.0433 690.131 54.698C690.299 54.3433 690.528 54.0493 690.817 53.816C691.116 53.5733 691.475 53.3867 691.895 53.256C692.315 53.1253 692.786 53.06 693.309 53.06C694.046 53.06 694.686 53.1907 695.227 53.452C695.768 53.704 696.23 54.0727 696.613 54.558L695.507 55.538C695.255 55.2113 694.947 54.95 694.583 54.754C694.219 54.558 693.766 54.46 693.225 54.46C692.665 54.46 692.231 54.572 691.923 54.796C691.615 55.02 691.461 55.3467 691.461 55.776C691.461 56.1867 691.587 56.4947 691.839 56.7C692.091 56.896 692.483 57.0453 693.015 57.148L693.883 57.33C694.863 57.5167 695.577 57.834 696.025 58.282C696.482 58.73 696.711 59.346 696.711 60.13C696.711 60.5873 696.632 61.0027 696.473 61.376C696.314 61.7493 696.081 62.0713 695.773 62.342C695.474 62.6033 695.106 62.8087 694.667 62.958C694.228 63.098 693.729 63.168 693.169 63.168ZM703.004 54.628V63H701.422V54.628H698.51V53.228H705.916V54.628H703.004ZM708.458 63V53.228H714.716V54.628H710.04V57.344H714.282V58.744H710.04V61.6H714.716V63H708.458ZM717.757 53.228H721.215C721.84 53.228 722.405 53.3307 722.909 53.536C723.422 53.7413 723.856 54.0493 724.211 54.46C724.575 54.8613 724.855 55.37 725.051 55.986C725.247 56.5927 725.345 57.302 725.345 58.114C725.345 58.926 725.247 59.64 725.051 60.256C724.855 60.8627 724.575 61.3713 724.211 61.782C723.856 62.1833 723.422 62.4867 722.909 62.692C722.405 62.8973 721.84 63 721.215 63H717.757V53.228ZM721.215 61.6C721.943 61.6 722.531 61.3713 722.979 60.914C723.427 60.4567 723.651 59.7847 723.651 58.898V57.33C723.651 56.4433 723.427 55.7713 722.979 55.314C722.531 54.8567 721.943 54.628 721.215 54.628H719.339V61.6H721.215Z" fill="#000E0B"/>
<g filter="url(#filter0_i_2480_15902)">
<rect width="736.396" height="20" rx="10" fill="#F7F7F7"/>
</g>
<rect x="4.34375" y="5" width="727.712" height="10" rx="5" fill="url(#paint0_linear_2480_15902)"/>
<g filter="url(#filter1_d_2480_15902)">
<circle cx="387.996" cy="10" r="3" fill="white"/>
</g>
<g filter="url(#filter2_d_2480_15902)">
<circle cx="209.969" cy="10" r="3" fill="white"/>
</g>
<g filter="url(#filter3_d_2480_15902)">
<circle cx="9.07812" cy="10" r="3" fill="white"/>
</g>
<g filter="url(#filter4_d_2480_15902)">
<circle cx="561.746" cy="10" r="3" fill="white"/>
</g>
<g filter="url(#filter5_d_2480_15902)">
<circle cx="724.633" cy="10" r="3" fill="white"/>
</g>
<defs>
<filter id="filter0_i_2480_15902" x="0" y="0" width="737.395" height="22" filterUnits="userSpaceOnUse" color-interpolation-filters="sRGB">
<feFlood flood-opacity="0" result="BackgroundImageFix"/>
<feBlend mode="normal" in="SourceGraphic" in2="BackgroundImageFix" result="shape"/>
<feColorMatrix in="SourceAlpha" type="matrix" values="0 0 0 0 0 0 0 0 0 0 0 0 0 0 0 0 0 0 127 0" result="hardAlpha"/>
<feOffset dx="1" dy="2"/>
<feGaussianBlur stdDeviation="2"/>
<feComposite in2="hardAlpha" operator="arithmetic" k2="-1" k3="1"/>
<feColorMatrix type="matrix" values="0 0 0 0 0 0 0 0 0 0 0 0 0 0 0 0 0 0 0.11 0"/>
<feBlend mode="normal" in2="shape" result="effect1_innerShadow_2480_15902"/>
</filter>
<filter id="filter1_d_2480_15902" x="384.198" y="6.8005" width="7.59602" height="7.59602" filterUnits="userSpaceOnUse" color-interpolation-filters="sRGB">
<feFlood flood-opacity="0" result="BackgroundImageFix"/>
<feColorMatrix in="SourceAlpha" type="matrix" values="0 0 0 0 0 0 0 0 0 0 0 0 0 0 0 0 0 0 127 0" result="hardAlpha"/>
<feOffset dy="0.598509"/>
<feGaussianBlur stdDeviation="0.399006"/>
<feColorMatrix type="matrix" values="0 0 0 0 0 0 0 0 0 0 0 0 0 0 0 0 0 0 0.129246 0"/>
<feBlend mode="normal" in2="BackgroundImageFix" result="effect1_dropShadow_2480_15902"/>
<feBlend mode="normal" in="SourceGraphic" in2="effect1_dropShadow_2480_15902" result="shape"/>
</filter>
<filter id="filter2_d_2480_15902" x="206.171" y="6.8005" width="7.59602" height="7.59602" filterUnits="userSpaceOnUse" color-interpolation-filters="sRGB">
<feFlood flood-opacity="0" result="BackgroundImageFix"/>
<feColorMatrix in="SourceAlpha" type="matrix" values="0 0 0 0 0 0 0 0 0 0 0 0 0 0 0 0 0 0 127 0" result="hardAlpha"/>
<feOffset dy="0.598509"/>
<feGaussianBlur stdDeviation="0.399006"/>
<feColorMatrix type="matrix" values="0 0 0 0 0 0 0 0 0 0 0 0 0 0 0 0 0 0 0.129246 0"/>
<feBlend mode="normal" in2="BackgroundImageFix" result="effect1_dropShadow_2480_15902"/>
<feBlend mode="normal" in="SourceGraphic" in2="effect1_dropShadow_2480_15902" result="shape"/>
</filter>
<filter id="filter3_d_2480_15902" x="5.28011" y="6.8005" width="7.59602" height="7.59602" filterUnits="userSpaceOnUse" color-interpolation-filters="sRGB">
<feFlood flood-opacity="0" result="BackgroundImageFix"/>
<feColorMatrix in="SourceAlpha" type="matrix" values="0 0 0 0 0 0 0 0 0 0 0 0 0 0 0 0 0 0 127 0" result="hardAlpha"/>
<feOffset dy="0.598509"/>
<feGaussianBlur stdDeviation="0.399006"/>
<feColorMatrix type="matrix" values="0 0 0 0 0 0 0 0 0 0 0 0 0 0 0 0 0 0 0.129246 0"/>
<feBlend mode="normal" in2="BackgroundImageFix" result="effect1_dropShadow_2480_15902"/>
<feBlend mode="normal" in="SourceGraphic" in2="effect1_dropShadow_2480_15902" result="shape"/>
</filter>
<filter id="filter4_d_2480_15902" x="557.948" y="6.8005" width="7.59602" height="7.59602" filterUnits="userSpaceOnUse" color-interpolation-filters="sRGB">
<feFlood flood-opacity="0" result="BackgroundImageFix"/>
<feColorMatrix in="SourceAlpha" type="matrix" values="0 0 0 0 0 0 0 0 0 0 0 0 0 0 0 0 0 0 127 0" result="hardAlpha"/>
<feOffset dy="0.598509"/>
<feGaussianBlur stdDeviation="0.399006"/>
<feColorMatrix type="matrix" values="0 0 0 0 0 0 0 0 0 0 0 0 0 0 0 0 0 0 0.129246 0"/>
<feBlend mode="normal" in2="BackgroundImageFix" result="effect1_dropShadow_2480_15902"/>
<feBlend mode="normal" in="SourceGraphic" in2="effect1_dropShadow_2480_15902" result="shape"/>
</filter>
<filter id="filter5_d_2480_15902" x="720.835" y="6.8005" width="7.59602" height="7.59602" filterUnits="userSpaceOnUse" color-interpolation-filters="sRGB">
<feFlood flood-opacity="0" result="BackgroundImageFix"/>
<feColorMatrix in="SourceAlpha" type="matrix" values="0 0 0 0 0 0 0 0 0 0 0 0 0 0 0 0 0 0 127 0" result="hardAlpha"/>
<feOffset dy="0.598509"/>
<feGaussianBlur stdDeviation="0.399006"/>
<feColorMatrix type="matrix" values="0 0 0 0 0 0 0 0 0 0 0 0 0 0 0 0 0 0 0.129246 0"/>
<feBlend mode="normal" in2="BackgroundImageFix" result="effect1_dropShadow_2480_15902"/>
<feBlend mode="normal" in="SourceGraphic" in2="effect1_dropShadow_2480_15902" result="shape"/>
</filter>
<linearGradient id="paint0_linear_2480_15902" x1="-23.4448" y1="15.0003" x2="661.075" y2="-6.87661" gradientUnits="userSpaceOnUse">
<stop stop-color="#185C65"/>
<stop offset="0.549054" stop-color="#2FC4B7"/>
<stop offset="1" stop-color="#BAF4DC"/>
</linearGradient>
</defs>
</svg>
