<svg width="40" height="40" viewBox="0 0 40 40" fill="none" xmlns="http://www.w3.org/2000/svg">
<circle opacity="0.2" cx="20" cy="20" r="20" fill="#000E0B"/>
<path d="M24.5538 16.6667V17.6667H25.5538C26.1727 17.6667 26.7662 17.9125 27.2037 18.3501C27.6413 18.7877 27.8872 19.3812 27.8872 20V27.7778C27.8872 28.3966 27.6413 28.9901 27.2037 29.4277C26.7662 29.8653 26.1727 30.1111 25.5538 30.1111H14.4427C13.8239 30.1111 13.2304 29.8653 12.7928 29.4277L12.0927 30.1278L12.7928 29.4277C12.3552 28.9901 12.1094 28.3966 12.1094 27.7778V20C12.1094 19.3812 12.3552 18.7877 12.7928 18.3501C13.2304 17.9125 13.8239 17.6667 14.4427 17.6667H15.4427V16.6667V14.4445C15.4427 13.2363 15.9227 12.0775 16.777 11.2232C17.6313 10.3689 18.7901 9.88892 19.9983 9.88892C21.2065 9.88892 22.3652 10.3689 23.2195 11.2232C24.0739 12.0775 24.5538 13.2363 24.5538 14.4445V16.6667ZM23.3316 17.6667H24.3316V16.6667V14.4445C24.3316 13.2952 23.8751 12.193 23.0624 11.3803C22.2497 10.5677 21.1475 10.1111 19.9983 10.1111C18.849 10.1111 17.7468 10.5677 16.9341 11.3803C16.1215 12.193 15.6649 13.2952 15.6649 14.4445V16.6667V17.6667H16.6649H23.3316ZM19.9197 22.1437C19.9405 22.1228 19.9688 22.1111 19.9983 22.1111C20.0277 22.1111 20.056 22.1228 20.0768 22.1437C20.0977 22.1645 20.1094 22.1928 20.1094 22.2223V25.5556C20.1094 25.5851 20.0977 25.6133 20.0768 25.6342C20.056 25.655 20.0277 25.6667 19.9983 25.6667C19.9688 25.6667 19.9405 25.655 19.9197 25.6342C19.8989 25.6133 19.8872 25.5851 19.8872 25.5556V22.2223C19.8872 22.1928 19.8989 22.1645 19.9197 22.1437ZM27.0466 29.2706C27.4425 28.8747 27.6649 28.3377 27.6649 27.7778V20C27.6649 19.4401 27.4425 18.9032 27.0466 18.5072C26.6507 18.1113 26.1137 17.8889 25.5538 17.8889H14.4427C13.8828 17.8889 13.3458 18.1113 12.9499 18.5072C12.554 18.9032 12.3316 19.4401 12.3316 20V27.7778C12.3316 28.3377 12.554 28.8747 12.9499 29.2706C13.3458 29.6665 13.8828 29.8889 14.4427 29.8889H25.5538C26.1137 29.8889 26.6507 29.6665 27.0466 29.2706Z" fill="#F7F7F7" stroke="#01D1B8" stroke-width="2"/>
</svg>
